# xmcd CD database file
#
# Track frame offsets:
#	150
#	18210
#	34635
#	51376
#	68819
#	82739
#	97834
#	119259
#	132516
#	147876
#	166192
#	184279
#
# Disc length: 2700 seconds
#
# Revision: 0
# Processed by: cddbd v1.5.2PL0 Copyright (c) Steve Scherf et al.
# Submitted via: CDex 1.70beta2
#
DISCID=970a8a0c
DTITLE=One More Girl - Big Sky
DYEAR=2009
DGENRE=Country
TTITLE0=Big Sky
TTITLE1=Tumblin' Tears
TTITLE2=When It Ain't Raining
TTITLE3=I Can Love Anyone
TTITLE4=The Day I Fall
TTITLE5=Misery Loves Company
TTITLE6=Cry To Me
TTITLE7=I Wanna Know
TTITLE8=Once Upon A Time
TTITLE9=Hold On To Me
TTITLE10=YouDon't Know Me
TTITLE11=Angels (w Aaron Pritchett)
EXTD=YEAR: 2009
EXTT0=
EXTT1=
EXTT2=
EXTT3=
EXTT4=
EXTT5=
EXTT6=
EXTT7=
EXTT8=
EXTT9=
EXTT10=
EXTT11=
PLAYORDER=
